<svg width="191" height="720" viewBox="0 0 191 720" fill="none" xmlns="http://www.w3.org/2000/svg">
<circle cx="2.5" cy="3.5" r="2.5" fill="#48A2FF" fill-opacity="0.66"/>
<circle cx="33.5" cy="3.5" r="2.5" fill="#48A2FF" fill-opacity="0.66"/>
<circle cx="64.5" cy="3.5" r="2.5" fill="#48A2FF" fill-opacity="0.66"/>
<circle cx="95.5" cy="3.5" r="2.5" fill="#48A2FF" fill-opacity="0.66"/>
<circle cx="126.5" cy="3.5" r="2.5" fill="#48A2FF" fill-opacity="0.66"/>
<circle cx="157.5" cy="3.5" r="2.5" fill="#48A2FF" fill-opacity="0.66"/>
<circle cx="188.5" cy="3.5" r="2.5" fill="#48A2FF" fill-opacity="0.66"/>
<circle cx="2.5" cy="34.5" r="2.5" fill="#48A2FF" fill-opacity="0.66"/>
<circle cx="33.5" cy="34.5" r="2.5" fill="#48A2FF" fill-opacity="0.66"/>
<circle cx="64.5" cy="34.5" r="2.5" fill="#48A2FF" fill-opacity="0.66"/>
<circle cx="95.5" cy="34.5" r="2.5" fill="#48A2FF" fill-opacity="0.66"/>
<circle cx="126.5" cy="34.5" r="2.5" fill="#48A2FF" fill-opacity="0.66"/>
<circle cx="157.5" cy="34.5" r="2.5" fill="#48A2FF" fill-opacity="0.66"/>
<circle cx="188.5" cy="34.5" r="2.5" fill="#48A2FF" fill-opacity="0.66"/>
<circle cx="2.5" cy="65.5" r="2.5" fill="#48A2FF" fill-opacity="0.66"/>
<circle cx="33.5" cy="65.5" r="2.5" fill="#48A2FF" fill-opacity="0.66"/>
<circle cx="64.5" cy="65.5" r="2.5" fill="#48A2FF" fill-opacity="0.66"/>
<circle cx="95.5" cy="65.5" r="2.5" fill="#48A2FF" fill-opacity="0.66"/>
<circle cx="126.5" cy="65.5" r="2.5" fill="#48A2FF" fill-opacity="0.66"/>
<circle cx="157.5" cy="65.5" r="2.5" fill="#48A2FF" fill-opacity="0.66"/>
<circle cx="188.5" cy="65.5" r="2.5" fill="#48A2FF" fill-opacity="0.66"/>
<circle cx="2.5" cy="96.5" r="2.5" fill="#48A2FF" fill-opacity="0.66"/>
<circle cx="33.5" cy="96.5" r="2.5" fill="#48A2FF" fill-opacity="0.66"/>
<circle cx="64.5" cy="96.5" r="2.5" fill="#48A2FF" fill-opacity="0.66"/>
<circle cx="95.5" cy="96.5" r="2.5" fill="#48A2FF" fill-opacity="0.66"/>
<circle cx="126.5" cy="96.5" r="2.5" fill="#48A2FF" fill-opacity="0.66"/>
<circle cx="157.5" cy="96.5" r="2.5" fill="#48A2FF" fill-opacity="0.66"/>
<circle cx="188.5" cy="96.5" r="2.5" fill="#48A2FF" fill-opacity="0.66"/>
<circle cx="2.5" cy="127.5" r="2.5" fill="#48A2FF" fill-opacity="0.66"/>
<circle cx="33.5" cy="127.5" r="2.5" fill="#48A2FF" fill-opacity="0.66"/>
<circle cx="64.5" cy="127.5" r="2.5" fill="#48A2FF" fill-opacity="0.66"/>
<circle cx="95.5" cy="127.5" r="2.5" fill="#48A2FF" fill-opacity="0.66"/>
<circle cx="126.5" cy="127.5" r="2.5" fill="#48A2FF" fill-opacity="0.66"/>
<circle cx="157.5" cy="127.5" r="2.5" fill="#48A2FF" fill-opacity="0.66"/>
<circle cx="188.5" cy="127.5" r="2.5" fill="#48A2FF" fill-opacity="0.66"/>
<circle cx="2.5" cy="158.5" r="2.5" fill="#48A2FF" fill-opacity="0.66"/>
<circle cx="33.5" cy="158.5" r="2.5" fill="#48A2FF" fill-opacity="0.66"/>
<circle cx="64.5" cy="158.5" r="2.5" fill="#48A2FF" fill-opacity="0.66"/>
<circle cx="95.5" cy="158.5" r="2.5" fill="#48A2FF" fill-opacity="0.66"/>
<circle cx="126.5" cy="158.5" r="2.5" fill="#48A2FF" fill-opacity="0.66"/>
<circle cx="157.5" cy="158.5" r="2.5" fill="#48A2FF" fill-opacity="0.66"/>
<circle cx="188.5" cy="158.5" r="2.5" fill="#48A2FF" fill-opacity="0.66"/>
<circle cx="2.5" cy="189.5" r="2.5" fill="#48A2FF" fill-opacity="0.66"/>
<circle cx="33.5" cy="189.5" r="2.5" fill="#48A2FF" fill-opacity="0.66"/>
<circle cx="64.5" cy="189.5" r="2.5" fill="#48A2FF" fill-opacity="0.66"/>
<circle cx="95.5" cy="189.5" r="2.5" fill="#48A2FF" fill-opacity="0.66"/>
<circle cx="126.5" cy="189.5" r="2.5" fill="#48A2FF" fill-opacity="0.66"/>
<circle cx="157.5" cy="189.5" r="2.5" fill="#48A2FF" fill-opacity="0.66"/>
<circle cx="188.5" cy="189.5" r="2.5" fill="#48A2FF" fill-opacity="0.66"/>
<circle cx="2.5" cy="220.5" r="2.5" fill="#48A2FF" fill-opacity="0.66"/>
<circle cx="33.5" cy="220.5" r="2.5" fill="#48A2FF" fill-opacity="0.66"/>
<circle cx="64.5" cy="220.5" r="2.5" fill="#48A2FF" fill-opacity="0.66"/>
<circle cx="95.5" cy="220.5" r="2.5" fill="#48A2FF" fill-opacity="0.66"/>
<circle cx="126.5" cy="220.5" r="2.5" fill="#48A2FF" fill-opacity="0.66"/>
<circle cx="157.5" cy="220.5" r="2.5" fill="#48A2FF" fill-opacity="0.66"/>
<circle cx="188.5" cy="220.5" r="2.5" fill="#48A2FF" fill-opacity="0.66"/>
<circle cx="2.5" cy="251.5" r="2.5" fill="#48A2FF" fill-opacity="0.66"/>
<circle cx="33.5" cy="251.5" r="2.5" fill="#48A2FF" fill-opacity="0.66"/>
<circle cx="64.5" cy="251.5" r="2.5" fill="#48A2FF" fill-opacity="0.66"/>
<circle cx="95.5" cy="251.5" r="2.5" fill="#48A2FF" fill-opacity="0.66"/>
<circle cx="126.5" cy="251.5" r="2.5" fill="#48A2FF" fill-opacity="0.66"/>
<circle cx="157.5" cy="251.5" r="2.5" fill="#48A2FF" fill-opacity="0.66"/>
<circle cx="188.5" cy="251.5" r="2.5" fill="#48A2FF" fill-opacity="0.66"/>
<circle cx="2.5" cy="282.5" r="2.5" fill="#48A2FF" fill-opacity="0.66"/>
<circle cx="33.5" cy="282.5" r="2.5" fill="#48A2FF" fill-opacity="0.66"/>
<circle cx="64.5" cy="282.5" r="2.5" fill="#48A2FF" fill-opacity="0.66"/>
<circle cx="95.5" cy="282.5" r="2.5" fill="#48A2FF" fill-opacity="0.66"/>
<circle cx="126.5" cy="282.5" r="2.5" fill="#48A2FF" fill-opacity="0.66"/>
<circle cx="157.5" cy="282.5" r="2.5" fill="#48A2FF" fill-opacity="0.66"/>
<circle cx="188.5" cy="282.5" r="2.5" fill="#48A2FF" fill-opacity="0.66"/>
<circle cx="2.5" cy="313.5" r="2.5" fill="#48A2FF" fill-opacity="0.66"/>
<circle cx="33.5" cy="313.5" r="2.5" fill="#48A2FF" fill-opacity="0.66"/>
<circle cx="64.5" cy="313.5" r="2.5" fill="#48A2FF" fill-opacity="0.66"/>
<circle cx="95.5" cy="313.5" r="2.5" fill="#48A2FF" fill-opacity="0.66"/>
<circle cx="126.5" cy="313.5" r="2.5" fill="#48A2FF" fill-opacity="0.66"/>
<circle cx="157.5" cy="313.5" r="2.5" fill="#48A2FF" fill-opacity="0.66"/>
<circle cx="188.5" cy="313.5" r="2.5" fill="#48A2FF" fill-opacity="0.66"/>
<circle cx="2.5" cy="344.5" r="2.5" fill="#48A2FF" fill-opacity="0.66"/>
<circle cx="33.5" cy="344.5" r="2.5" fill="#48A2FF" fill-opacity="0.66"/>
<circle cx="64.5" cy="344.5" r="2.5" fill="#48A2FF" fill-opacity="0.66"/>
<circle cx="95.5" cy="344.5" r="2.5" fill="#48A2FF" fill-opacity="0.66"/>
<circle cx="126.5" cy="344.5" r="2.5" fill="#48A2FF" fill-opacity="0.66"/>
<circle cx="157.5" cy="344.5" r="2.5" fill="#48A2FF" fill-opacity="0.66"/>
<circle cx="188.5" cy="344.5" r="2.5" fill="#48A2FF" fill-opacity="0.66"/>
<circle cx="2.5" cy="375.5" r="2.5" fill="#48A2FF" fill-opacity="0.66"/>
<circle cx="33.5" cy="375.5" r="2.5" fill="#48A2FF" fill-opacity="0.66"/>
<circle cx="64.5" cy="375.5" r="2.5" fill="#48A2FF" fill-opacity="0.66"/>
<circle cx="95.5" cy="375.5" r="2.5" fill="#48A2FF" fill-opacity="0.66"/>
<circle cx="126.5" cy="375.5" r="2.5" fill="#48A2FF" fill-opacity="0.66"/>
<circle cx="157.5" cy="375.5" r="2.5" fill="#48A2FF" fill-opacity="0.66"/>
<circle cx="188.5" cy="375.5" r="2.5" fill="#48A2FF" fill-opacity="0.66"/>
<circle cx="2.5" cy="406.5" r="2.5" fill="#48A2FF" fill-opacity="0.66"/>
<circle cx="33.5" cy="406.5" r="2.5" fill="#48A2FF" fill-opacity="0.66"/>
<circle cx="64.5" cy="406.5" r="2.5" fill="#48A2FF" fill-opacity="0.66"/>
<circle cx="95.5" cy="406.5" r="2.5" fill="#48A2FF" fill-opacity="0.66"/>
<circle cx="126.5" cy="406.5" r="2.5" fill="#48A2FF" fill-opacity="0.66"/>
<circle cx="157.5" cy="406.5" r="2.5" fill="#48A2FF" fill-opacity="0.66"/>
<circle cx="188.5" cy="406.5" r="2.5" fill="#48A2FF" fill-opacity="0.66"/>
<circle cx="2.5" cy="437.5" r="2.5" fill="#48A2FF" fill-opacity="0.66"/>
<circle cx="33.5" cy="437.5" r="2.5" fill="#48A2FF" fill-opacity="0.66"/>
<circle cx="64.5" cy="437.5" r="2.5" fill="#48A2FF" fill-opacity="0.66"/>
<circle cx="95.5" cy="437.5" r="2.5" fill="#48A2FF" fill-opacity="0.66"/>
<circle cx="126.5" cy="437.5" r="2.5" fill="#48A2FF" fill-opacity="0.66"/>
<circle cx="157.5" cy="437.5" r="2.5" fill="#48A2FF" fill-opacity="0.66"/>
<circle cx="188.5" cy="437.5" r="2.5" fill="#48A2FF" fill-opacity="0.66"/>
<circle cx="2.5" cy="468.5" r="2.5" fill="#48A2FF" fill-opacity="0.66"/>
<circle cx="33.5" cy="468.5" r="2.5" fill="#48A2FF" fill-opacity="0.66"/>
<circle cx="64.5" cy="468.5" r="2.5" fill="#48A2FF" fill-opacity="0.66"/>
<circle cx="95.5" cy="468.5" r="2.5" fill="#48A2FF" fill-opacity="0.66"/>
<circle cx="126.5" cy="468.5" r="2.5" fill="#48A2FF" fill-opacity="0.66"/>
<circle cx="157.5" cy="468.5" r="2.5" fill="#48A2FF" fill-opacity="0.66"/>
<circle cx="188.5" cy="468.5" r="2.5" fill="#48A2FF" fill-opacity="0.66"/>
<circle cx="2.5" cy="499.5" r="2.5" fill="#48A2FF" fill-opacity="0.66"/>
<circle cx="33.5" cy="499.5" r="2.5" fill="#48A2FF" fill-opacity="0.66"/>
<circle cx="64.5" cy="499.5" r="2.5" fill="#48A2FF" fill-opacity="0.66"/>
<circle cx="95.5" cy="499.5" r="2.5" fill="#48A2FF" fill-opacity="0.66"/>
<circle cx="126.5" cy="499.5" r="2.5" fill="#48A2FF" fill-opacity="0.66"/>
<circle cx="157.5" cy="499.5" r="2.5" fill="#48A2FF" fill-opacity="0.66"/>
<circle cx="188.5" cy="499.5" r="2.5" fill="#48A2FF" fill-opacity="0.66"/>
<circle cx="2.5" cy="530.5" r="2.5" fill="#48A2FF" fill-opacity="0.66"/>
<circle cx="33.5" cy="530.5" r="2.5" fill="#48A2FF" fill-opacity="0.66"/>
<circle cx="64.5" cy="530.5" r="2.5" fill="#48A2FF" fill-opacity="0.66"/>
<circle cx="95.5" cy="530.5" r="2.5" fill="#48A2FF" fill-opacity="0.66"/>
<circle cx="126.5" cy="530.5" r="2.5" fill="#48A2FF" fill-opacity="0.66"/>
<circle cx="157.5" cy="530.5" r="2.5" fill="#48A2FF" fill-opacity="0.66"/>
<circle cx="188.5" cy="530.5" r="2.5" fill="#48A2FF" fill-opacity="0.66"/>
<circle cx="2.5" cy="561.5" r="2.5" fill="#48A2FF" fill-opacity="0.66"/>
<circle cx="33.5" cy="561.5" r="2.5" fill="#48A2FF" fill-opacity="0.66"/>
<circle cx="64.5" cy="561.5" r="2.5" fill="#48A2FF" fill-opacity="0.66"/>
<circle cx="95.5" cy="561.5" r="2.5" fill="#48A2FF" fill-opacity="0.66"/>
<circle cx="126.5" cy="561.5" r="2.5" fill="#48A2FF" fill-opacity="0.66"/>
<circle cx="157.5" cy="561.5" r="2.5" fill="#48A2FF" fill-opacity="0.66"/>
<circle cx="188.5" cy="561.5" r="2.5" fill="#48A2FF" fill-opacity="0.66"/>
<circle cx="2.5" cy="592.5" r="2.5" fill="#48A2FF" fill-opacity="0.66"/>
<circle cx="33.5" cy="592.5" r="2.5" fill="#48A2FF" fill-opacity="0.66"/>
<circle cx="64.5" cy="592.5" r="2.5" fill="#48A2FF" fill-opacity="0.66"/>
<circle cx="95.5" cy="592.5" r="2.5" fill="#48A2FF" fill-opacity="0.66"/>
<circle cx="126.5" cy="592.5" r="2.5" fill="#48A2FF" fill-opacity="0.66"/>
<circle cx="157.5" cy="592.5" r="2.5" fill="#48A2FF" fill-opacity="0.66"/>
<circle cx="188.5" cy="592.5" r="2.5" fill="#48A2FF" fill-opacity="0.66"/>
<circle cx="2.5" cy="623.5" r="2.5" fill="#48A2FF" fill-opacity="0.66"/>
<circle cx="33.5" cy="623.5" r="2.5" fill="#48A2FF" fill-opacity="0.66"/>
<circle cx="64.5" cy="623.5" r="2.5" fill="#48A2FF" fill-opacity="0.66"/>
<circle cx="95.5" cy="623.5" r="2.5" fill="#48A2FF" fill-opacity="0.66"/>
<circle cx="126.5" cy="623.5" r="2.5" fill="#48A2FF" fill-opacity="0.66"/>
<circle cx="157.5" cy="623.5" r="2.5" fill="#48A2FF" fill-opacity="0.66"/>
<circle cx="188.5" cy="623.5" r="2.5" fill="#48A2FF" fill-opacity="0.66"/>
<circle cx="2.5" cy="654.5" r="2.5" fill="#48A2FF" fill-opacity="0.66"/>
<circle cx="33.5" cy="654.5" r="2.5" fill="#48A2FF" fill-opacity="0.66"/>
<circle cx="64.5" cy="654.5" r="2.5" fill="#48A2FF" fill-opacity="0.66"/>
<circle cx="95.5" cy="654.5" r="2.5" fill="#48A2FF" fill-opacity="0.66"/>
<circle cx="126.5" cy="654.5" r="2.5" fill="#48A2FF" fill-opacity="0.66"/>
<circle cx="157.5" cy="654.5" r="2.5" fill="#48A2FF" fill-opacity="0.66"/>
<circle cx="188.5" cy="654.5" r="2.5" fill="#48A2FF" fill-opacity="0.66"/>
<circle cx="2.5" cy="685.5" r="2.5" fill="#48A2FF" fill-opacity="0.66"/>
<circle cx="33.5" cy="685.5" r="2.5" fill="#48A2FF" fill-opacity="0.66"/>
<circle cx="64.5" cy="685.5" r="2.5" fill="#48A2FF" fill-opacity="0.66"/>
<circle cx="95.5" cy="685.5" r="2.5" fill="#48A2FF" fill-opacity="0.66"/>
<circle cx="126.5" cy="685.5" r="2.5" fill="#48A2FF" fill-opacity="0.66"/>
<circle cx="157.5" cy="685.5" r="2.5" fill="#48A2FF" fill-opacity="0.66"/>
<circle cx="188.5" cy="685.5" r="2.5" fill="#48A2FF" fill-opacity="0.66"/>
<circle cx="2.5" cy="716.5" r="2.5" fill="#48A2FF" fill-opacity="0.66"/>
<circle cx="33.5" cy="716.5" r="2.5" fill="#48A2FF" fill-opacity="0.66"/>
<circle cx="64.5" cy="716.5" r="2.5" fill="#48A2FF" fill-opacity="0.66"/>
<circle cx="95.5" cy="716.5" r="2.5" fill="#48A2FF" fill-opacity="0.66"/>
<circle cx="126.5" cy="716.5" r="2.5" fill="#48A2FF" fill-opacity="0.66"/>
<circle cx="157.5" cy="716.5" r="2.5" fill="#48A2FF" fill-opacity="0.66"/>
<circle cx="188.5" cy="716.5" r="2.5" fill="#48A2FF" fill-opacity="0.66"/>
</svg>
