<svg xmlns="http://www.w3.org/2000/svg" width="21" height="16" viewBox="0 0 21 16" fill="none">
  <path d="M20.495 1.881C19.7678 2.2 18.9929 2.41144 18.185 2.51411C19.0161 2.01789 19.6505 1.23811 19.9487 0.298222C19.1738 0.760222 18.3182 1.08656 17.4065 1.26867C16.6707 0.485222 15.622 0 14.478 0C12.2585 0 10.4716 1.80156 10.4716 4.01011C10.4716 4.32789 10.4985 4.63344 10.5645 4.92433C7.23145 4.76178 4.28223 3.16433 2.30101 0.730889C1.95512 1.331 1.75223 2.01789 1.75223 2.75733C1.75223 4.14578 2.46723 5.37656 3.53301 6.08911C2.8889 6.07689 2.25701 5.88989 1.72168 5.59533C1.72168 5.60756 1.72168 5.62344 1.72168 5.63933C1.72168 7.58756 3.11134 9.20578 4.93368 9.57856C4.60734 9.66778 4.25168 9.71056 3.88256 9.71056C3.6259 9.71056 3.36679 9.69589 3.12356 9.64211C3.64301 11.2298 5.11701 12.397 6.86968 12.4349C5.50568 13.5019 3.77379 14.1448 1.8989 14.1448C1.57012 14.1448 1.25479 14.1301 0.939453 14.0898C2.71534 15.235 4.82001 15.8889 7.08968 15.8889C14.467 15.8889 18.5003 9.77778 18.5003 4.48067C18.5003 4.30344 18.4942 4.13233 18.4857 3.96244C19.2813 3.39778 19.9499 2.69256 20.495 1.881Z" fill="#1E2833"/>
</svg>